{
 "cells": [
  {
   "cell_type": "markdown",
   "metadata": {},
   "source": [
    "A notebook for making a 100-frame movie from 3D dust for Linnea as a test\n",
    "\n",
    "Two environment variables need to be set in bash: DROPBOX_ROOT, and FFMPEG_ROOT. The DROPBOX_ROOT folder is the path to the top level directory of the dust-holgrams folder shared by Josh. E.g. in bash,\n",
    "\n",
    "export DROPBOX_ROOT='/Users/catherinezucker/Dropbox/dust-holograms/'\n",
    "\n",
    "You can also set the path to the FFMPEG executable:\n",
    "\n",
    "export FFMPEG_PATH='/usr/local/bin'\n",
    "\n",
    "Ideally, you would set these in your bash_profile profile  (now called zprofile in the latest OS operating systems). Alternatively, if you want to set one of these variables locally in this notebook, you can use:\n",
    "\n",
    "```\n",
    "import os\n",
    "os.environ['DROPBOX_ROOT'] = '/Users/catherinezucker/Dropbox/dust-holograms'\n",
    "os.environ['FFMPEG_ROOT'] = '/Usr/local/bin'\n",
    "\n",
    "```"
   ]
  },
  {
   "cell_type": "markdown",
   "metadata": {},
   "source": [
    "First thing we need to do is figure out how to write some json"
   ]
  },
  {
   "cell_type": "code",
   "execution_count": 17,
   "metadata": {},
   "outputs": [],
   "source": [
    "import json\n",
    "import numpy as np\n",
    "import os\n",
    "%matplotlib inline\n",
    "#%matplotlib notebook\n",
    "from matplotlib import pyplot as plt\n",
    "from astropy import table"
   ]
  },
  {
   "cell_type": "markdown",
   "metadata": {},
   "source": [
    "Josh is having some trouble with ```.zprofile``` so:"
   ]
  },
  {
   "cell_type": "code",
   "execution_count": 18,
   "metadata": {},
   "outputs": [],
   "source": [
    "if (os.environ.keys() != 'DROPBOX_HOME'):\n",
    "    os.environ['DROPBOX_ROOT'] = '/Users/jegpeek/Dropbox/dust-holograms'\n",
    "    os.environ['FFMPEG_ROOT'] = '/Users/jegpeek/'"
   ]
  },
  {
   "cell_type": "markdown",
   "metadata": {},
   "source": [
    "Using a variable called ```run_name``` to record everything we need about the run"
   ]
  },
  {
   "cell_type": "code",
   "execution_count": 19,
   "metadata": {},
   "outputs": [],
   "source": [
    "def define_paths(run_name):\n",
    "    if os.path.isdir(\"{}/{}/\".format(os.environ['DROPBOX_ROOT'],run_name)) == False:\n",
    "        os.mkdir(\"{}/{}/\".format(os.environ['DROPBOX_ROOT'],run_name))\n",
    "        os.mkdir(\"{}/{}/frames/\".format(os.environ['DROPBOX_ROOT'],run_name))"
   ]
  },
  {
   "cell_type": "markdown",
   "metadata": {},
   "source": [
    "This is the camera properties, which we will fix."
   ]
  },
  {
   "cell_type": "code",
   "execution_count": 20,
   "metadata": {},
   "outputs": [],
   "source": [
    "arc = False\n",
    "if arc:\n",
    "    ec = \"szyz\"\n",
    "if not arc:\n",
    "    ec = \"rxyz\"\n",
    "\n",
    "t = True\n",
    "cprops ={\n",
    "    \"projection\": \"stereographic\",\n",
    "    \"step_size\": 1,\n",
    "    \"max_dist\": 500.0,\n",
    "    \"fov\": 45.0,\n",
    "    \"x_pix\": 60,\n",
    "    \"y_pix\": 40,\n",
    "    \"vmax\": \"auto\",\n",
    "    \"clip_mode\": \"tanh\",\n",
    "    \"fuzzy\": t,\n",
    "    \"randomize_angles\": t,\n",
    "    \"euler_convention\": ec}"
   ]
  },
  {
   "cell_type": "code",
   "execution_count": 21,
   "metadata": {},
   "outputs": [
    {
     "name": "stdout",
     "output_type": "stream",
     "text": [
      "{'projection': 'stereographic', 'step_size': 1, 'max_dist': 500.0, 'fov': 45.0, 'x_pix': 60, 'y_pix': 40, 'vmax': 'auto', 'clip_mode': 'tanh', 'fuzzy': True, 'randomize_angles': True, 'euler_convention': 'rxyz'}\n"
     ]
    }
   ],
   "source": [
    "print(cprops)"
   ]
  },
  {
   "cell_type": "markdown",
   "metadata": {},
   "source": [
    "_In arc mode_ Linnea asked for 100 frames orbiting around a point with equal distance. We'll assume that the middle of these 100 frames is the Sun, and we'll set some sweep out angle in the Galactic Plane."
   ]
  },
  {
   "cell_type": "code",
   "execution_count": 22,
   "metadata": {},
   "outputs": [],
   "source": [
    "nframes = 19 # 100 frames\n",
    "if arc:\n",
    "    angle_sweep = 45 # half of this CCW and half CW from the sun"
   ]
  },
  {
   "cell_type": "code",
   "execution_count": 23,
   "metadata": {},
   "outputs": [],
   "source": [
    "def sweep(xc, yc, angle_sweep, nframes):\n",
    "    R = np.sqrt(xc**2+ yc**2)\n",
    "    phi =np.arctan2(yc, xc)*180/np.pi\n",
    "    dangs = np.linspace(0, angle_sweep, nframes)\n",
    "    xs = xc - R*np.cos((phi-angle_sweep/2+dangs)*np.pi/180)\n",
    "    ys = yc - R*np.sin((phi-angle_sweep/2+dangs)*np.pi/180)\n",
    "    angs = (dangs-angle_sweep/2+phi)*np.pi/180 ## wait are these in RADIANs??\n",
    "    return xs, ys, angs"
   ]
  },
  {
   "cell_type": "code",
   "execution_count": 24,
   "metadata": {},
   "outputs": [],
   "source": [
    "def plot_ang(x0, y0, xs, ys, run_name):\n",
    "    plt.figure(figsize=[5, 5])\n",
    "    plt.scatter(x0, y0)\n",
    "    plt.scatter(0, 0, c='red')\n",
    "    plt.plot(xs, ys)\n",
    "    plt.xlim([-500, 500])\n",
    "    plt.ylim([-500, 500])\n",
    "    plt.title(run_name)\n",
    "    plt.savefig('{}/{}/arc_{}'.format(os.environ['DROPBOX_ROOT'],run_name,run_name))"
   ]
  },
  {
   "cell_type": "code",
   "execution_count": 25,
   "metadata": {},
   "outputs": [],
   "source": [
    "def plot_track(xts, yts, xc, yc, run_name):\n",
    "    plt.figure(figsize=[5, 5])\n",
    "    plt.scatter(xts, yts)\n",
    "    plt.scatter(0, 0, c='C1')\n",
    "    plt.scatter(xc, yc, c='C2')\n",
    "    plt.xlim([-500, 500])\n",
    "    plt.ylim([-500, 500])\n",
    "    plt.title(run_name)\n",
    "    plt.savefig('{}/{}/arc_{}'.format(os.environ['DROPBOX_ROOT'],run_name,run_name))"
   ]
  },
  {
   "cell_type": "markdown",
   "metadata": {},
   "source": [
    "In track mode we'll move from one point to another while pointing at the cloud and keeping to top of the camera perpindicular to the plane that contains the track and cloud"
   ]
  },
  {
   "cell_type": "markdown",
   "metadata": {},
   "source": [
    "Given the current position of the viewer, the unit direction toward the start of the track, and the cloud position, compute the angles of rotation"
   ]
  },
  {
   "cell_type": "code",
   "execution_count": 26,
   "metadata": {},
   "outputs": [],
   "source": [
    "def determine_angles(v_pos, c_pos, t_hat):\n",
    "    x_hat = np.array([1, 0, 0])\n",
    "    y_hat = np.array([0, 1, 0])\n",
    "    z_hat = np.array([0, 0, 1])\n",
    "    # the vector to the cloud\n",
    "    c_vec = c_pos-v_pos\n",
    "    # the unit vector toward the cloud\n",
    "    c_hat = c_vec/np.sqrt(np.sum(c_vec**2))\n",
    "    \n",
    "    #FIRST\n",
    "    # the unit vector perp to the plane containing the track and the cloud\n",
    "    n_OCT = np.cross(c_hat, t_hat) #CHECK ORDER ####FLIPPED\n",
    "    n_hat_OCT = n_OCT/np.sqrt(np.sum(n_OCT**2))\n",
    "    #print('n_hat_OCT', n_hat_OCT)\n",
    "    #print('c_hat', c_hat)\n",
    "    #print('v_pos', v_pos)\n",
    "    #print('c_vec', c_vec)\n",
    "    #print('c_pos', c_pos)\n",
    "    # find the new orientation of the side of the camera\n",
    "    v_y_prime = np.cross(n_hat_OCT, x_hat) #CHECK ORDER (correct)\n",
    "    v_hat_y_prime = v_y_prime/np.sqrt(np.sum(v_y_prime**2))\n",
    "    # and find the angle to rotate first\n",
    "    theta = np.arccos(np.dot(v_hat_y_prime,y_hat))\n",
    "    #print('theta', theta)\n",
    "    #print('v_hat_y_prime',v_hat_y_prime)\n",
    "    \n",
    "    #SECOND\n",
    "    # the unit vector perp to the plane that contains the rotation \n",
    "    #n_phi = np.cross(v_hat_y_prime, x_hat) #CHECK ORDER ###FLIPPED\n",
    "    #n_hat_phi = n_phi/np.sqrt(np.sum(n_phi**2))\n",
    "    # the vector being rotated to\n",
    "    #v_x_prime_prime = np.cross(n_hat_OCT,n_hat_phi) #CHECK ORDER (correct)\n",
    "    #### OOOPS\n",
    "    v_x_prime_prime = np.cross(v_hat_y_prime, n_hat_OCT)\n",
    "    v_hat_x_prime_prime = v_x_prime_prime/np.sqrt(np.sum(v_x_prime_prime**2))\n",
    "    # and the angle rotated\n",
    "    phi = np.arccos(np.dot(v_hat_x_prime_prime, x_hat))\n",
    "    #print('n_phi', n_phi)\n",
    "    \n",
    "    #FINALLY\n",
    "    zeta = np.arccos(np.dot(v_hat_x_prime_prime, c_hat))\n",
    "    print('c hat', c_hat)\n",
    "    return theta, phi, zeta\n",
    "    "
   ]
  },
  {
   "cell_type": "markdown",
   "metadata": {},
   "source": [
    "given some inputs build a track"
   ]
  },
  {
   "cell_type": "code",
   "execution_count": 27,
   "metadata": {},
   "outputs": [],
   "source": [
    "def track(xt1, yt1, zt1, xt2, yt2, zt2, nframes):\n",
    "    xts = np.linspace(xt1, xt2, nframes)\n",
    "    yts = np.linspace(yt1, yt2, nframes)\n",
    "    zts = np.linspace(zt1, zt2, nframes)\n",
    "    t_vec = np.array([xt2-xt1, yt2-yt1, zt2-zt1])\n",
    "    t_hat = t_vec/np.sqrt(np.sum(t_vec**2))\n",
    "    return xts, yts, zts, t_hat"
   ]
  },
  {
   "cell_type": "code",
   "execution_count": 28,
   "metadata": {},
   "outputs": [],
   "source": [
    "def build_fprops(fprops, cprops, angs, xs, ys, zc):\n",
    "    for i in range(nframes):\n",
    "        fprops.append({\n",
    "          \"xyz\": [xs[i], ys[i], zc],\n",
    "          \"angles\": [angs[i], 0.0, 0.0]\n",
    "        })\n",
    "    allprops = {\"camera_props\": cprops,\"frame_props\":fprops }\n",
    "    return allprops"
   ]
  },
  {
   "cell_type": "code",
   "execution_count": 29,
   "metadata": {},
   "outputs": [],
   "source": [
    "def build_fprops_track(fprops, cprops, theatas, phis, zetas, xs, ys, zs):\n",
    "    for i in range(nframes):\n",
    "        fprops.append({\n",
    "          \"xyz\": [xs[i], ys[i], zs[i]],\n",
    "          \"angles\": [thetas[i], phis[i], zetas[i]]\n",
    "        })\n",
    "    allprops = {\"camera_props\": cprops,\"frame_props\":fprops }\n",
    "    return allprops"
   ]
  },
  {
   "cell_type": "markdown",
   "metadata": {},
   "source": [
    "Let's read in a list of molecular clouds and make movies for each one:"
   ]
  },
  {
   "cell_type": "code",
   "execution_count": 30,
   "metadata": {},
   "outputs": [],
   "source": [
    "clouds = table.Table.read('{}/Holo_Cloud_Targets.csv'.format(os.environ['DROPBOX_ROOT']))\n",
    "#clouds = table.Table.read('{}/Holo_TEST_Targets.csv'.format(os.environ['DROPBOX_ROOT']))"
   ]
  },
  {
   "cell_type": "code",
   "execution_count": null,
   "metadata": {},
   "outputs": [
    {
     "name": "stdout",
     "output_type": "stream",
     "text": [
      "Chamaeleon\n",
      "[0.87415728 0.48564293 0.        ]\n",
      "c hat [ 0.79961764 -0.54710681 -0.24755964]\n",
      "165.9787201722434 7.666008811742404 36.21277000968203 36.21277000968203\n",
      "c hat [ 0.77291301 -0.58207029 -0.25258595]\n",
      "165.9787201722434 7.666008811742404 38.75011723401205 2.537347224330018\n",
      "c hat [ 0.74355323 -0.61719778 -0.25728485]\n",
      "165.9787201722434 7.666008811742404 41.38721154991796 2.6370943159059017\n",
      "c hat [ 0.71148843 -0.65219773 -0.26157663]\n",
      "165.9787201722434 7.666008811742355 44.118241938244594 2.7310303883266402\n",
      "c hat [ 0.67672133 -0.68674683 -0.26538091]\n",
      "165.9787201722434 7.666008811742404 46.93527873071644 2.817036792471846\n",
      "c hat [ 0.63931583 -0.72049879 -0.2686201 ]\n",
      "165.9787201722434 7.666008811742404 49.82823348409732 2.892954753380875\n",
      "c hat [ 0.59940312 -0.75309622 -0.27122313]\n",
      "165.9787201722434 7.666008811742404 52.7849310296664 2.9566975455690936\n",
      "c hat [ 0.5571841  -0.78418504 -0.27312946]\n",
      "165.9787201722434 7.666008811742355 55.79130832473395 3.006377295067542\n",
      "c hat [ 0.51292742 -0.81343036 -0.27429274]\n",
      "165.9787201722434 7.666008811742404 58.8317425696246 3.0404342448906565\n",
      "c hat [ 0.46696249 -0.84053247 -0.27468381]\n",
      "165.9787201722434 7.666008811742404 61.889496015238294 3.0577534456136832\n",
      "c hat [ 0.41966789 -0.86524121 -0.27429274]\n",
      "165.9787201722434 7.666008811742404 64.94724946085196 3.0577534456136832\n",
      "c hat [ 0.37145607 -0.88736728 -0.27312946]\n",
      "165.9787201722434 7.666008811742355 67.98768370574263 3.0404342448906503\n",
      "c hat [ 0.32275552 -0.90678933 -0.27122313]\n",
      "165.9787201722434 7.666008811742404 70.99406100081018 3.0063772950675545\n",
      "c hat [ 0.2739925 -0.9234562 -0.2686201]\n",
      "165.9787201722434 7.666008811742404 73.95075854637928 2.9566975455690936\n",
      "c hat [ 0.22557378 -0.93738436 -0.26538091]\n",
      "165.9787201722434 7.666008811742404 76.84371329976013 2.892954753380862\n",
      "c hat [ 0.17787211 -0.94865124 -0.26157663]\n",
      "165.9787201722434 7.666008811742404 79.66075009223199 2.817036792471852\n",
      "c hat [ 0.13121528 -0.95738553 -0.25728485]\n",
      "165.9787201722434 7.666008811742404 82.39178048055864 2.7310303883266402\n",
      "c hat [ 0.08587922 -0.96375572 -0.25258595]\n",
      "165.9787201722434 7.666008811742404 85.02887479646452 2.637094315905909\n",
      "c hat [ 0.04208514 -0.96795819 -0.24755964]\n",
      "165.9787201722434 7.666008811742404 87.56622202079456 2.537347224330018\n",
      "Loaded specifications for 19 images.\n"
     ]
    },
    {
     "name": "stderr",
     "output_type": "stream",
     "text": [
      "100% (19 of 19) |########################| Elapsed Time: 0:00:04 ETA:  00:00:00"
     ]
    },
    {
     "name": "stdout",
     "output_type": "stream",
     "text": [
      "All workers done.\n",
      "0.397824734759316\n",
      "Loading map ...\n",
      "Ray-casting frames ...\n",
      "frame 0: vmax = 0.005471662555777584\n",
      "frame 1: vmax = 0.005841045070243126\n",
      "frame 2: vmax = 0.005940742924656661\n",
      "frame 3: vmax = 0.004845269660880149\n",
      "frame 4: vmax = 0.0046153210579832375\n",
      "frame 5: vmax = 0.004162846945910133\n",
      "frame 6: vmax = 0.004352928346506814\n",
      "frame 7: vmax = 0.004084615535386547\n",
      "frame 8: vmax = 0.004229031643964845\n",
      "frame 9: vmax = 0.0045620662122673825\n",
      "frame 10: vmax = 0.004615446880634409\n",
      "frame 11: vmax = 0.003986366011784412\n",
      "frame 12: vmax = 0.0038051796982472297\n",
      "frame 13: vmax = 0.004631778863418731\n",
      "frame 14: vmax = 0.004224798836025002\n",
      "frame 15: vmax = 0.0042838267816187\n",
      "frame 16: vmax = 0.005957081943997764\n",
      "frame 17: vmax = 0.006169471150453319\n",
      "frame 18: vmax = 0.005513385313402978\n",
      "Worker finished.\n"
     ]
    },
    {
     "name": "stderr",
     "output_type": "stream",
     "text": [
      "ffmpeg version 5.0-tessus  https://evermeet.cx/ffmpeg/  Copyright (c) 2000-2022 the FFmpeg developers\n",
      "  built with Apple clang version 11.0.0 (clang-1100.0.33.17)\n",
      "  configuration: --cc=/usr/bin/clang --prefix=/opt/ffmpeg --extra-version=tessus --enable-avisynth --enable-fontconfig --enable-gpl --enable-libaom --enable-libass --enable-libbluray --enable-libdav1d --enable-libfreetype --enable-libgsm --enable-libmodplug --enable-libmp3lame --enable-libmysofa --enable-libopencore-amrnb --enable-libopencore-amrwb --enable-libopenh264 --enable-libopenjpeg --enable-libopus --enable-librubberband --enable-libshine --enable-libsnappy --enable-libsoxr --enable-libspeex --enable-libtheora --enable-libtwolame --enable-libvidstab --enable-libvmaf --enable-libvo-amrwbenc --enable-libvorbis --enable-libvpx --enable-libwebp --enable-libx264 --enable-libx265 --enable-libxavs --enable-libxvid --enable-libzimg --enable-libzmq --enable-libzvbi --enable-version3 --pkg-config-flags=--static --disable-ffplay\n",
      "  libavutil      57. 17.100 / 57. 17.100\n",
      "  libavcodec     59. 18.100 / 59. 18.100\n",
      "  libavformat    59. 16.100 / 59. 16.100\n",
      "  libavdevice    59.  4.100 / 59.  4.100\n",
      "  libavfilter     8. 24.100 /  8. 24.100\n",
      "  libswscale      6.  4.100 /  6.  4.100\n",
      "  libswresample   4.  3.100 /  4.  3.100\n",
      "  libpostproc    56.  3.100 / 56.  3.100\n",
      "Input #0, image2, from '/Users/jegpeek/Dropbox/dust-holograms/Chamaeleon_test_track_2/frames/Chamaeleon_test_track_2_%05d.png':\n",
      "  Duration: 00:00:00.76, start: 0.000000, bitrate: N/A\n",
      "  Stream #0:0: Video: png, gray16be(pc), 60x40, 25 fps, 25 tbr, 25 tbn\n",
      "Stream mapping:\n",
      "  Stream #0:0 -> #0:0 (png (native) -> h264 (libx264))\n",
      "Press [q] to stop, [?] for help\n",
      "[libx264 @ 0x7fb856a054c0] using cpu capabilities: MMX2 SSE2Fast SSSE3 SSE4.2 AVX FMA3 BMI2 AVX2\n",
      "[libx264 @ 0x7fb856a054c0] profile High, level 3.0, 4:2:0, 8-bit\n",
      "[libx264 @ 0x7fb856a054c0] 264 - core 164 r3081 19856cc - H.264/MPEG-4 AVC codec - Copyleft 2003-2021 - http://www.videolan.org/x264.html - options: cabac=1 ref=3 deblock=1:0:0 analyse=0x3:0x113 me=hex subme=7 psy=1 psy_rd=1.00:0.00 mixed_ref=1 me_range=16 chroma_me=1 trellis=1 8x8dct=1 cqm=0 deadzone=21,11 fast_pskip=1 chroma_qp_offset=-2 threads=12 lookahead_threads=2 sliced_threads=0 nr=0 decimate=1 interlaced=0 bluray_compat=0 constrained_intra=0 bframes=3 b_pyramid=2 b_adapt=1 b_bias=0 direct=1 weightb=1 open_gop=0 weightp=2 keyint=250 keyint_min=25 scenecut=40 intra_refresh=0 rc_lookahead=40 rc=crf mbtree=1 crf=23.0 qcomp=0.60 qpmin=0 qpmax=69 qpstep=4 ip_ratio=1.40 aq=1:1.00\n",
      "Output #0, mp4, to '/Users/jegpeek/Dropbox/dust-holograms/Chamaeleon_test_track_2/Chamaeleon_test_track_2.mp4':\n",
      "  Metadata:\n",
      "    encoder         : Lavf59.16.100\n",
      "  Stream #0:0: Video: h264 (avc1 / 0x31637661), yuv420p(tv, progressive), 600x400, q=2-31, 30 fps, 15360 tbn\n",
      "    Metadata:\n",
      "      encoder         : Lavc59.18.100 libx264\n",
      "    Side data:\n",
      "      cpb: bitrate max/min/avg: 0/0/0 buffer size: 0 vbv_delay: N/A\n",
      "frame=    1 fps=0.0 q=0.0 size=       0kB time=00:00:00.00 bitrate=N/A speed=   0x    \r",
      "frame=   19 fps=0.0 q=-1.0 Lsize=      64kB time=00:00:00.53 bitrate= 976.0kbits/s speed=4.69x    \n",
      "video:62kB audio:0kB subtitle:0kB other streams:0kB global headers:0kB muxing overhead: 1.687685%\n",
      "[libx264 @ 0x7fb856a054c0] frame I:1     Avg QP:24.04  size:  2989\n",
      "[libx264 @ 0x7fb856a054c0] frame P:6     Avg QP:25.04  size:  3673\n",
      "[libx264 @ 0x7fb856a054c0] frame B:12    Avg QP:25.51  size:  3190\n",
      "[libx264 @ 0x7fb856a054c0] consecutive B-frames: 10.5% 10.5% 15.8% 63.2%\n",
      "[libx264 @ 0x7fb856a054c0] mb I  I16..4: 28.4% 71.2%  0.4%\n",
      "[libx264 @ 0x7fb856a054c0] mb P  I16..4: 15.1% 46.3%  0.1%  P16..4: 29.0%  4.6%  0.8%  0.0%  0.0%    skip: 4.1%\n",
      "[libx264 @ 0x7fb856a054c0] mb B  I16..4:  4.6% 13.9%  0.1%  B16..8: 39.1% 12.8%  1.6%  direct: 5.3%  skip:22.5%  L0:37.4% L1:56.0% BI: 6.6%\n",
      "[libx264 @ 0x7fb856a054c0] 8x8 transform intra:74.5% inter:97.2%\n",
      "[libx264 @ 0x7fb856a054c0] coded y,uvDC,uvAC intra: 44.3% 0.0% 0.0% inter: 27.7% 0.0% 0.0%\n",
      "[libx264 @ 0x7fb856a054c0] i16 v,h,dc,p:  8% 19%  5% 68%\n",
      "[libx264 @ 0x7fb856a054c0] i8 v,h,dc,ddl,ddr,vr,hd,vl,hu: 18% 23% 17%  5%  9%  6%  8%  5%  7%\n",
      "[libx264 @ 0x7fb856a054c0] i4 v,h,dc,ddl,ddr,vr,hd,vl,hu: 12% 29% 11%  6% 19%  9%  6%  5%  2%\n",
      "[libx264 @ 0x7fb856a054c0] i8c dc,h,v,p: 100%  0%  0%  0%\n",
      "[libx264 @ 0x7fb856a054c0] Weighted P-Frames: Y:66.7% UV:0.0%\n",
      "[libx264 @ 0x7fb856a054c0] ref P L0: 60.4%  6.2% 17.7% 11.5%  4.1%\n",
      "[libx264 @ 0x7fb856a054c0] ref B L0: 75.5% 21.6%  2.8%\n",
      "[libx264 @ 0x7fb856a054c0] ref B L1: 94.7%  5.3%\n",
      "[libx264 @ 0x7fb856a054c0] kb/s:799.62\n"
     ]
    },
    {
     "name": "stdout",
     "output_type": "stream",
     "text": [
      "Ophiuchus\n",
      "[0.07728751 0.99700885 0.        ]\n",
      "c hat [0.89438236 0.36375999 0.26030531]\n",
      "178.66547321008858 16.722273735393927 20.952807428524604 -66.61341459226995\n",
      "c hat [0.90862956 0.32229491 0.26555285]\n",
      "178.66547321008858 16.722273735393927 18.422571877184208 -2.530235551340394\n",
      "c hat [0.92155562 0.27854712 0.27045654]\n",
      "178.66547321008858 16.722273735393927 15.793595759785687 -2.628976117398521\n",
      "c hat [0.93289439 0.23263613 0.27493361]\n",
      "178.66547321008858 16.722273735393927 13.071681291663333 -2.721914468122353\n",
      "c hat [0.94238251 0.18474193 0.27890073]\n",
      "178.66547321008858 16.722273735393905 10.264716266008953 -2.806965025654379\n",
      "c hat [0.94977127 0.13510718 0.28227749]\n",
      "178.66547321008858 16.722273735393927 7.382710613442561 -2.8820056525663937\n",
      "c hat [0.95483952 0.08403562 0.28499037]\n",
      "178.66547321008858 16.722273735393927 4.437723120093873 -2.944987493348688\n",
      "c hat [0.95740671 0.0318863  0.28697674]\n",
      "178.66547321008858 16.722273735393927 1.4436643277933123 -2.9940587923005606\n",
      "c hat [ 0.95734473 -0.02093678  0.28818868]\n",
      "178.66547321008858 16.722273735393927 1.584026522822776 0.14036219502946376\n",
      "c hat [ 0.95458706 -0.073999    0.28859609]\n",
      "178.66547321008858 16.722273735393905 4.628818074645868 3.0447915518230926\n",
      "c hat [ 0.94913423 -0.12685228  0.28818868]\n",
      "178.66547321008858 16.722273735393927 7.673609626468544 3.0447915518226747\n",
      "c hat [ 0.94105476 -0.17905386  0.28697674]\n",
      "178.66547321008858 16.722273735393927 10.701300477085 3.0276908506164575\n",
      "c hat [ 0.93048137 -0.23018453  0.28499037]\n",
      "178.66547321008858 16.722273735393927 13.695359269385577 2.9940587923005766\n",
      "c hat [ 0.9176029  -0.27986486  0.28227749]\n",
      "178.66547321008858 16.722273735393927 16.64034676273424 2.9449874933486595\n",
      "c hat [ 0.90265307 -0.32776795  0.27890073]\n",
      "178.66547321008858 16.72227373539395 19.522352415300663 2.882005652566424\n",
      "c hat [ 0.88589719 -0.37362773  0.27493361]\n",
      "178.66547321008858 16.722273735393927 22.329317440954984 2.806965025654322\n",
      "c hat [ 0.86761842 -0.41724278  0.27045654]\n",
      "178.66547321008858 16.722273735393927 25.051231909077366 2.7219144681223817\n",
      "c hat [ 0.84810469 -0.45847586  0.26555285]\n",
      "178.66547321008858 16.722273735393927 27.68020802647586 2.6289761173984925\n",
      "c hat [ 0.82763741 -0.4972499   0.26030531]\n",
      "178.66547321008858 16.722273735393927 30.210443577816235 2.530235551340378\n",
      "Loaded specifications for 19 images.\n"
     ]
    },
    {
     "name": "stderr",
     "output_type": "stream",
     "text": [
      "100% (19 of 19) |########################| Elapsed Time: 0:00:06 ETA:  00:00:00"
     ]
    },
    {
     "name": "stdout",
     "output_type": "stream",
     "text": [
      "All workers done.\n",
      "0.397824734759316\n",
      "Loading map ...\n",
      "Ray-casting frames ...\n",
      "frame 0: vmax = 0.007171568547142669\n",
      "frame 1: vmax = 0.005882867251290009\n",
      "frame 2: vmax = 0.006362166153252474\n",
      "frame 3: vmax = 0.006836656245373888\n",
      "frame 4: vmax = 0.021687221189175033\n",
      "frame 5: vmax = 0.019781231634915457\n",
      "frame 6: vmax = 0.02553793198276253\n",
      "frame 7: vmax = 0.02081663998120348\n",
      "frame 8: vmax = 0.019860819103909307\n",
      "frame 9: vmax = 0.026834108743998514\n",
      "frame 10: vmax = 0.02596770947278128\n",
      "frame 11: vmax = 0.028536563006622603\n",
      "frame 12: vmax = 0.027014855268062094\n",
      "frame 13: vmax = 0.021857984103204216\n",
      "frame 14: vmax = 0.007614481264390634\n",
      "frame 15: vmax = 0.006290258747598273\n",
      "frame 16: vmax = 0.006150793338980293\n",
      "frame 17: vmax = 0.006507725449511782\n",
      "frame 18: vmax = 0.007575642335257726\n",
      "Worker finished.\n"
     ]
    },
    {
     "name": "stderr",
     "output_type": "stream",
     "text": [
      "ffmpeg version 5.0-tessus  https://evermeet.cx/ffmpeg/  Copyright (c) 2000-2022 the FFmpeg developers\n",
      "  built with Apple clang version 11.0.0 (clang-1100.0.33.17)\n",
      "  configuration: --cc=/usr/bin/clang --prefix=/opt/ffmpeg --extra-version=tessus --enable-avisynth --enable-fontconfig --enable-gpl --enable-libaom --enable-libass --enable-libbluray --enable-libdav1d --enable-libfreetype --enable-libgsm --enable-libmodplug --enable-libmp3lame --enable-libmysofa --enable-libopencore-amrnb --enable-libopencore-amrwb --enable-libopenh264 --enable-libopenjpeg --enable-libopus --enable-librubberband --enable-libshine --enable-libsnappy --enable-libsoxr --enable-libspeex --enable-libtheora --enable-libtwolame --enable-libvidstab --enable-libvmaf --enable-libvo-amrwbenc --enable-libvorbis --enable-libvpx --enable-libwebp --enable-libx264 --enable-libx265 --enable-libxavs --enable-libxvid --enable-libzimg --enable-libzmq --enable-libzvbi --enable-version3 --pkg-config-flags=--static --disable-ffplay\n",
      "  libavutil      57. 17.100 / 57. 17.100\n",
      "  libavcodec     59. 18.100 / 59. 18.100\n",
      "  libavformat    59. 16.100 / 59. 16.100\n",
      "  libavdevice    59.  4.100 / 59.  4.100\n",
      "  libavfilter     8. 24.100 /  8. 24.100\n",
      "  libswscale      6.  4.100 /  6.  4.100\n",
      "  libswresample   4.  3.100 /  4.  3.100\n",
      "  libpostproc    56.  3.100 / 56.  3.100\n",
      "Input #0, image2, from '/Users/jegpeek/Dropbox/dust-holograms/Ophiuchus_test_track_2/frames/Ophiuchus_test_track_2_%05d.png':\n",
      "  Duration: 00:00:00.76, start: 0.000000, bitrate: N/A\n",
      "  Stream #0:0: Video: png, gray16be(pc), 60x40, 25 fps, 25 tbr, 25 tbn\n",
      "Stream mapping:\n",
      "  Stream #0:0 -> #0:0 (png (native) -> h264 (libx264))\n",
      "Press [q] to stop, [?] for help\n",
      "[libx264 @ 0x7f7ea0807a40] using cpu capabilities: MMX2 SSE2Fast SSSE3 SSE4.2 AVX FMA3 BMI2 AVX2\n",
      "[libx264 @ 0x7f7ea0807a40] profile High, level 3.0, 4:2:0, 8-bit\n",
      "[libx264 @ 0x7f7ea0807a40] 264 - core 164 r3081 19856cc - H.264/MPEG-4 AVC codec - Copyleft 2003-2021 - http://www.videolan.org/x264.html - options: cabac=1 ref=3 deblock=1:0:0 analyse=0x3:0x113 me=hex subme=7 psy=1 psy_rd=1.00:0.00 mixed_ref=1 me_range=16 chroma_me=1 trellis=1 8x8dct=1 cqm=0 deadzone=21,11 fast_pskip=1 chroma_qp_offset=-2 threads=12 lookahead_threads=2 sliced_threads=0 nr=0 decimate=1 interlaced=0 bluray_compat=0 constrained_intra=0 bframes=3 b_pyramid=2 b_adapt=1 b_bias=0 direct=1 weightb=1 open_gop=0 weightp=2 keyint=250 keyint_min=25 scenecut=40 intra_refresh=0 rc_lookahead=40 rc=crf mbtree=1 crf=23.0 qcomp=0.60 qpmin=0 qpmax=69 qpstep=4 ip_ratio=1.40 aq=1:1.00\n",
      "Output #0, mp4, to '/Users/jegpeek/Dropbox/dust-holograms/Ophiuchus_test_track_2/Ophiuchus_test_track_2.mp4':\n",
      "  Metadata:\n",
      "    encoder         : Lavf59.16.100\n",
      "  Stream #0:0: Video: h264 (avc1 / 0x31637661), yuv420p(tv, progressive), 600x400, q=2-31, 30 fps, 15360 tbn\n",
      "    Metadata:\n",
      "      encoder         : Lavc59.18.100 libx264\n",
      "    Side data:\n",
      "      cpb: bitrate max/min/avg: 0/0/0 buffer size: 0 vbv_delay: N/A\n",
      "frame=    1 fps=0.0 q=0.0 size=       0kB time=00:00:00.00 bitrate=N/A speed=   0x    \r",
      "frame=   19 fps=0.0 q=-1.0 Lsize=      59kB time=00:00:00.53 bitrate= 913.5kbits/s speed=   5x    \n",
      "video:58kB audio:0kB subtitle:0kB other streams:0kB global headers:0kB muxing overhead: 1.791504%\n",
      "[libx264 @ 0x7f7ea0807a40] frame I:1     Avg QP:24.61  size:  3008\n",
      "[libx264 @ 0x7f7ea0807a40] frame P:7     Avg QP:24.42  size:  3242\n",
      "[libx264 @ 0x7f7ea0807a40] frame B:11    Avg QP:24.86  size:  3040\n",
      "[libx264 @ 0x7f7ea0807a40] consecutive B-frames: 21.1%  0.0% 15.8% 63.2%\n",
      "[libx264 @ 0x7f7ea0807a40] mb I  I16..4: 22.7% 77.1%  0.2%\n",
      "[libx264 @ 0x7f7ea0807a40] mb P  I16..4: 12.8% 42.5%  0.1%  P16..4: 32.2%  4.1%  0.6%  0.0%  0.0%    skip: 7.7%\n",
      "[libx264 @ 0x7f7ea0807a40] mb B  I16..4:  3.9% 16.7%  0.1%  B16..8: 39.0% 11.3%  0.9%  direct: 3.5%  skip:24.5%  L0:41.3% L1:54.6% BI: 4.0%\n",
      "[libx264 @ 0x7f7ea0807a40] 8x8 transform intra:78.0% inter:98.2%\n",
      "[libx264 @ 0x7f7ea0807a40] coded y,uvDC,uvAC intra: 45.7% 0.0% 0.0% inter: 24.3% 0.0% 0.0%\n",
      "[libx264 @ 0x7f7ea0807a40] i16 v,h,dc,p:  9% 17%  6% 69%\n",
      "[libx264 @ 0x7f7ea0807a40] i8 v,h,dc,ddl,ddr,vr,hd,vl,hu: 17% 23% 18%  6%  8%  6%  7%  7%  7%\n",
      "[libx264 @ 0x7f7ea0807a40] i4 v,h,dc,ddl,ddr,vr,hd,vl,hu: 15% 37% 10%  4%  9%  9%  8%  5%  4%\n",
      "[libx264 @ 0x7f7ea0807a40] i8c dc,h,v,p: 100%  0%  0%  0%\n",
      "[libx264 @ 0x7f7ea0807a40] Weighted P-Frames: Y:57.1% UV:0.0%\n",
      "[libx264 @ 0x7f7ea0807a40] ref P L0: 68.3%  7.1% 10.9%  7.7%  6.0%\n",
      "[libx264 @ 0x7f7ea0807a40] ref B L0: 84.2% 13.6%  2.2%\n",
      "[libx264 @ 0x7f7ea0807a40] ref B L1: 90.8%  9.2%\n",
      "[libx264 @ 0x7f7ea0807a40] kb/s:747.13\n"
     ]
    },
    {
     "name": "stdout",
     "output_type": "stream",
     "text": [
      "Lupus\n",
      "[0.31073886 0.95049533 0.        ]\n",
      "c hat [0.9862492  0.14671476 0.07607432]\n",
      "178.48165683253404 4.63367169723601 8.316867457223637 -21.8935761205926\n",
      "c hat [0.99176816 0.10176726 0.07771318]\n",
      "178.48165683253404 4.63367169723601 5.720303789995239 -2.596563667228396\n",
      "c hat [0.99535168 0.05472076 0.07925075]\n",
      "178.48165683253404 4.63367169723601 3.015243370835808 -2.7050604191594316\n",
      "c hat [0.99672504 0.00576142 0.08065983]\n",
      "178.48165683253404 4.63367169723601 0.20753442775173822 -2.8077089430840703\n",
      "c hat [ 0.99562953 -0.04485696  0.08191271]\n",
      "178.48165683253404 4.63367169723601 2.694562443737995 2.4870280159862572\n",
      "c hat [ 0.99183729 -0.0968128   0.0829824 ]\n",
      "178.48165683253404 4.63367169723601 5.680298887872312 2.9857364441343166\n",
      "c hat [ 0.98516683 -0.1497214   0.08384399]\n",
      "178.48165683253404 4.63367169723601 8.736496697277083 3.0561978094047713\n",
      "c hat [ 0.97549779 -0.2031449   0.0844761 ]\n",
      "178.48165683253404 4.63367169723601 11.847760149677622 3.111263452400539\n",
      "c hat [ 0.96278296 -0.25660742  0.0848623 ]\n",
      "178.48165683253404 4.63367169723601 14.99684870532646 3.1490885556488384\n",
      "c hat [ 0.94705607 -0.30961448  0.08499221]\n",
      "178.48165683253404 4.63367169723601 18.165196461444605 3.168347756118147\n",
      "c hat [ 0.92843393 -0.36167502  0.0848623 ]\n",
      "178.48165683253404 4.63367169723601 21.333544217562768 3.168347756118163\n",
      "c hat [ 0.90711238 -0.41232381  0.0844761 ]\n",
      "178.48165683253404 4.63367169723601 24.482632773211627 3.1490885556488557\n",
      "c hat [ 0.88335628 -0.46114192  0.08384399]\n",
      "178.48165683253404 4.63367169723601 27.59389622561214 3.1112634524005154\n",
      "c hat [ 0.85748483 -0.50777327  0.0829824 ]\n",
      "178.48165683253404 4.63367169723601 30.650094035017005 3.056197809404868\n",
      "c hat [ 0.8298538  -0.55193566  0.08191271]\n",
      "178.48165683253404 4.63367169723601 33.63583047915125 2.9857364441342416\n",
      "c hat [ 0.80083688 -0.59342589  0.08065983]\n",
      "178.48165683253404 4.63367169723601 36.53792735064335 2.902096871492106\n",
      "c hat [ 0.77080789 -0.63211907  0.07925075]\n",
      "178.48165683253404 4.63367169723601 39.3456362937252 2.807708943081846\n",
      "c hat [ 0.74012549 -0.66796326  0.07771318]\n",
      "178.48165683253404 4.63367169723601 42.05069671288449 2.705060419159283\n",
      "c hat [ 0.70912132 -0.7009705   0.07607432]\n",
      "178.48165683253404 4.63367169723601 44.647260380112904 2.596563667228422\n",
      "Loaded specifications for 19 images.\n"
     ]
    },
    {
     "name": "stderr",
     "output_type": "stream",
     "text": [
      "Traceback (most recent call last):\n",
      "  File \"project_frames.py\", line 270, in <module>\n",
      "    main()\n",
      "  File \"project_frames.py\", line 264, in main\n",
      "    make_frames_parallel(args.n_processes, args.dustmap, args.output, spec)\n",
      "  File \"project_frames.py\", line 136, in make_frames_parallel\n",
      "    frame_q.join()\n",
      "  File \"/Users/jegpeek/opt/anaconda3/lib/python3.8/multiprocessing/queues.py\", line 326, in join\n",
      "    self._cond.wait()\n",
      "  File \"/Users/jegpeek/opt/anaconda3/lib/python3.8/multiprocessing/synchronize.py\", line 261, in wait\n",
      "    return self._wait_semaphore.acquire(True, timeout)\n",
      "KeyboardInterrupt\n"
     ]
    },
    {
     "name": "stdout",
     "output_type": "stream",
     "text": [
      "0.397824734759316\n",
      "Loading map ...\n"
     ]
    },
    {
     "name": "stderr",
     "output_type": "stream",
     "text": [
      "Process Process-1:\n",
      "Traceback (most recent call last):\n",
      "  File \"/Users/jegpeek/opt/anaconda3/lib/python3.8/multiprocessing/process.py\", line 315, in _bootstrap\n",
      "    self.run()\n",
      "  File \"/Users/jegpeek/opt/anaconda3/lib/python3.8/multiprocessing/process.py\", line 108, in run\n",
      "    self._target(*self._args, **self._kwargs)\n",
      "  File \"/Users/jegpeek/GitHub/dust_proj_simple/project_frames.py\", line 168, in make_frames\n",
      "    density_map = load_map(dustmap_fname)\n",
      "  File \"/Users/jegpeek/GitHub/dust_proj_simple/project_frames.py\", line 216, in load_map\n",
      "    pix_val = np.load(dustmap_fname)\n",
      "  File \"/Users/jegpeek/opt/anaconda3/lib/python3.8/site-packages/numpy/lib/npyio.py\", line 440, in load\n",
      "    return format.read_array(fid, allow_pickle=allow_pickle,\n",
      "  File \"/Users/jegpeek/opt/anaconda3/lib/python3.8/site-packages/numpy/lib/format.py\", line 753, in read_array\n",
      "    array = numpy.fromfile(fp, dtype=dtype, count=count)\n",
      "KeyboardInterrupt\n",
      "ffmpeg version 5.0-tessus  https://evermeet.cx/ffmpeg/  Copyright (c) 2000-2022 the FFmpeg developers\n",
      "  built with Apple clang version 11.0.0 (clang-1100.0.33.17)\n",
      "  configuration: --cc=/usr/bin/clang --prefix=/opt/ffmpeg --extra-version=tessus --enable-avisynth --enable-fontconfig --enable-gpl --enable-libaom --enable-libass --enable-libbluray --enable-libdav1d --enable-libfreetype --enable-libgsm --enable-libmodplug --enable-libmp3lame --enable-libmysofa --enable-libopencore-amrnb --enable-libopencore-amrwb --enable-libopenh264 --enable-libopenjpeg --enable-libopus --enable-librubberband --enable-libshine --enable-libsnappy --enable-libsoxr --enable-libspeex --enable-libtheora --enable-libtwolame --enable-libvidstab --enable-libvmaf --enable-libvo-amrwbenc --enable-libvorbis --enable-libvpx --enable-libwebp --enable-libx264 --enable-libx265 --enable-libxavs --enable-libxvid --enable-libzimg --enable-libzmq --enable-libzvbi --enable-version3 --pkg-config-flags=--static --disable-ffplay\n",
      "  libavutil      57. 17.100 / 57. 17.100\n",
      "  libavcodec     59. 18.100 / 59. 18.100\n",
      "  libavformat    59. 16.100 / 59. 16.100\n",
      "  libavdevice    59.  4.100 / 59.  4.100\n",
      "  libavfilter     8. 24.100 /  8. 24.100\n",
      "  libswscale      6.  4.100 /  6.  4.100\n",
      "  libswresample   4.  3.100 /  4.  3.100\n",
      "  libpostproc    56.  3.100 / 56.  3.100\n",
      "Input #0, image2, from '/Users/jegpeek/Dropbox/dust-holograms/Lupus_test_track_2/frames/Lupus_test_track_2_%05d.png':\n",
      "  Duration: 00:00:00.76, start: 0.000000, bitrate: N/A\n",
      "  Stream #0:0: Video: png, gray16be(pc), 60x40, 25 fps, 25 tbr, 25 tbn\n",
      "Stream mapping:\n",
      "  Stream #0:0 -> #0:0 (png (native) -> h264 (libx264))\n",
      "Press [q] to stop, [?] for help\n",
      "[libx264 @ 0x7f8352904ec0] using cpu capabilities: MMX2 SSE2Fast SSSE3 SSE4.2 AVX FMA3 BMI2 AVX2\n",
      "[libx264 @ 0x7f8352904ec0] profile High, level 3.0, 4:2:0, 8-bit\n",
      "[libx264 @ 0x7f8352904ec0] 264 - core 164 r3081 19856cc - H.264/MPEG-4 AVC codec - Copyleft 2003-2021 - http://www.videolan.org/x264.html - options: cabac=1 ref=3 deblock=1:0:0 analyse=0x3:0x113 me=hex subme=7 psy=1 psy_rd=1.00:0.00 mixed_ref=1 me_range=16 chroma_me=1 trellis=1 8x8dct=1 cqm=0 deadzone=21,11 fast_pskip=1 chroma_qp_offset=-2 threads=12 lookahead_threads=2 sliced_threads=0 nr=0 decimate=1 interlaced=0 bluray_compat=0 constrained_intra=0 bframes=3 b_pyramid=2 b_adapt=1 b_bias=0 direct=1 weightb=1 open_gop=0 weightp=2 keyint=250 keyint_min=25 scenecut=40 intra_refresh=0 rc_lookahead=40 rc=crf mbtree=1 crf=23.0 qcomp=0.60 qpmin=0 qpmax=69 qpstep=4 ip_ratio=1.40 aq=1:1.00\n",
      "Output #0, mp4, to '/Users/jegpeek/Dropbox/dust-holograms/Lupus_test_track_2/Lupus_test_track_2.mp4':\n",
      "  Metadata:\n",
      "    encoder         : Lavf59.16.100\n",
      "  Stream #0:0: Video: h264 (avc1 / 0x31637661), yuv420p(tv, progressive), 600x400, q=2-31, 30 fps, 15360 tbn\n",
      "    Metadata:\n",
      "      encoder         : Lavc59.18.100 libx264\n",
      "    Side data:\n",
      "      cpb: bitrate max/min/avg: 0/0/0 buffer size: 0 vbv_delay: N/A\n",
      "frame=   19 fps=0.0 q=-1.0 Lsize=      59kB time=00:00:00.53 bitrate= 907.6kbits/s speed= 4.6x    \n",
      "video:58kB audio:0kB subtitle:0kB other streams:0kB global headers:0kB muxing overhead: 1.762441%\n",
      "[libx264 @ 0x7f8352904ec0] frame I:1     Avg QP:24.13  size:  3078\n",
      "[libx264 @ 0x7f8352904ec0] frame P:8     Avg QP:23.75  size:  3049\n",
      "[libx264 @ 0x7f8352904ec0] frame B:10    Avg QP:24.42  size:  3131\n",
      "[libx264 @ 0x7f8352904ec0] consecutive B-frames: 26.3%  0.0% 31.6% 42.1%\n",
      "[libx264 @ 0x7f8352904ec0] mb I  I16..4: 21.6% 78.2%  0.2%\n",
      "[libx264 @ 0x7f8352904ec0] mb P  I16..4: 14.1% 36.7%  0.1%  P16..4: 39.2%  3.4%  0.7%  0.0%  0.0%    skip: 5.9%\n",
      "[libx264 @ 0x7f8352904ec0] mb B  I16..4:  4.8% 16.6%  0.0%  B16..8: 42.6% 12.5%  0.9%  direct: 2.2%  skip:20.4%  L0:61.2% L1:36.1% BI: 2.6%\n",
      "[libx264 @ 0x7f8352904ec0] 8x8 transform intra:74.6% inter:99.0%\n",
      "[libx264 @ 0x7f8352904ec0] coded y,uvDC,uvAC intra: 39.9% 0.0% 0.0% inter: 24.7% 0.0% 0.0%\n",
      "[libx264 @ 0x7f8352904ec0] i16 v,h,dc,p:  7% 21%  7% 64%\n",
      "[libx264 @ 0x7f8352904ec0] i8 v,h,dc,ddl,ddr,vr,hd,vl,hu: 19% 21% 23%  7%  7%  5%  7%  6%  7%\n",
      "[libx264 @ 0x7f8352904ec0] i4 v,h,dc,ddl,ddr,vr,hd,vl,hu: 22% 23% 16%  7%  5%  5% 10%  7%  4%\n",
      "[libx264 @ 0x7f8352904ec0] i8c dc,h,v,p: 100%  0%  0%  0%\n",
      "[libx264 @ 0x7f8352904ec0] Weighted P-Frames: Y:0.0% UV:0.0%\n",
      "[libx264 @ 0x7f8352904ec0] ref P L0: 47.8%  4.7% 31.0% 16.4%\n",
      "[libx264 @ 0x7f8352904ec0] ref B L0: 73.9% 20.4%  5.7%\n",
      "[libx264 @ 0x7f8352904ec0] ref B L1: 86.0% 14.0%\n",
      "[libx264 @ 0x7f8352904ec0] kb/s:742.40\n"
     ]
    },
    {
     "name": "stdout",
     "output_type": "stream",
     "text": [
      "Taurus\n",
      "[-0.12663189 -0.99194978  0.        ]\n",
      "c hat [-0.91665998 -0.32083099 -0.2383316 ]\n",
      "178.01012300966576 15.216125987836898 161.798369291267 117.15110891115411\n",
      "c hat [-0.92912721 -0.2785303  -0.24319437]\n",
      "178.01012300966576 15.21612598783692 164.3406170739721 2.5422477827050924\n",
      "c hat [-0.94014798 -0.23397827 -0.2477417 ]\n",
      "178.01012300966576 15.21612598783692 166.98331089793115 2.642693823959051\n",
      "c hat [-0.94945472 -0.18730739 -0.25189615]\n",
      "178.01012300966576 15.21612598783692 169.72063418052412 2.7373232825929525\n",
      "c hat [-0.95678526 -0.13871202 -0.25557962]\n",
      "178.01012300966576 15.21612598783692 172.5446286347631 2.8239944542390023\n",
      "c hat [-0.96189515 -0.08845013 -0.25871663]\n",
      "178.01012300966576 15.21612598783692 175.4451516087226 2.90052297395948\n",
      "c hat [-0.96457111 -0.03684126 -0.26123801]\n",
      "178.01012300966576 15.21612598783692 178.4099472330367 2.964795624314129\n",
      "c hat [-0.9646443   0.01574012 -0.26308481]\n",
      "178.01012300966576 15.21612598783692 178.57515353387984 0.16520630084313592\n",
      "c hat [-0.96200219  0.06887574 -0.26421187]\n",
      "178.01012300966576 15.21612598783692 175.5259012657546 -3.0492522681252456\n",
      "c hat [-0.95659746  0.12211883 -0.26459079]\n",
      "178.01012300966576 15.21612598783692 172.45917750523253 -3.0667237605220796\n",
      "c hat [-0.94845287  0.17501214 -0.26421187]\n",
      "178.01012300966576 15.21612598783692 169.3924537447104 -3.0667237605221302\n",
      "c hat [-0.93766125  0.2271074  -0.26308481]\n",
      "178.01012300966576 15.21612598783692 166.3432014765852 -3.049252268125195\n",
      "c hat [-0.92438065  0.27798403 -0.26123801]\n",
      "178.01012300966576 15.21612598783692 163.3283022435016 -3.014899233083615\n",
      "c hat [-0.90882507  0.32726548 -0.25871663]\n",
      "178.01012300966576 15.21612598783692 160.3635066191875 -2.9647956243141036\n",
      "c hat [-0.89125202  0.37463167 -0.25557962]\n",
      "178.01012300966576 15.21612598783692 157.46298364522804 -2.900522973959455\n",
      "c hat [-0.87194821  0.41982692 -0.25189615]\n",
      "178.01012300966576 15.21612598783692 154.63898919098904 -2.8239944542389765\n",
      "c hat [-0.85121506  0.46266291 -0.2477417 ]\n",
      "178.01012300966576 15.21612598783692 151.9016659083961 -2.7373232825929525\n",
      "c hat [-0.82935516  0.50301741 -0.24319437]\n",
      "178.01012300966576 15.21612598783692 149.25897208443706 -2.642693823959051\n",
      "c hat [-0.80666078  0.54082939 -0.2383316 ]\n",
      "178.01012300966576 15.21612598783692 146.71672430173194 -2.5422477827050924\n",
      "Loaded specifications for 19 images.\n"
     ]
    },
    {
     "name": "stderr",
     "output_type": "stream",
     "text": [
      "100% (19 of 19) |########################| Elapsed Time: 0:00:04 ETA:  00:00:00"
     ]
    },
    {
     "name": "stdout",
     "output_type": "stream",
     "text": [
      "All workers done.\n",
      "0.397824734759316\n",
      "Loading map ...\n",
      "Ray-casting frames ...\n",
      "frame 0: vmax = 0.016892911258026288\n",
      "frame 1: vmax = 0.014726709993392434\n",
      "frame 2: vmax = 0.020367182650239558\n",
      "frame 3: vmax = 0.012436775206613675\n",
      "frame 4: vmax = 0.019779074065110765\n",
      "frame 5: vmax = 0.019596543125884637\n",
      "frame 6: vmax = 0.014842489746217324\n",
      "frame 7: vmax = 0.021214285551508512\n",
      "frame 8: vmax = 0.015650609300031648\n",
      "frame 9: vmax = 0.02069718284899318\n",
      "frame 10: vmax = 0.015510235368212307\n",
      "frame 11: vmax = 0.01650914975608066\n",
      "frame 12: vmax = 0.01591960816944811\n",
      "frame 13: vmax = 0.015220318152403706\n",
      "frame 14: vmax = 0.015917457461184312\n",
      "frame 15: vmax = 0.01302993509595035\n",
      "frame 16: vmax = 0.015825878218241995\n",
      "frame 17: vmax = 0.01308500995513532\n",
      "frame 18: vmax = 0.013459373585970753\n",
      "Worker finished.\n"
     ]
    },
    {
     "name": "stderr",
     "output_type": "stream",
     "text": [
      "ffmpeg version 5.0-tessus  https://evermeet.cx/ffmpeg/  Copyright (c) 2000-2022 the FFmpeg developers\n",
      "  built with Apple clang version 11.0.0 (clang-1100.0.33.17)\n",
      "  configuration: --cc=/usr/bin/clang --prefix=/opt/ffmpeg --extra-version=tessus --enable-avisynth --enable-fontconfig --enable-gpl --enable-libaom --enable-libass --enable-libbluray --enable-libdav1d --enable-libfreetype --enable-libgsm --enable-libmodplug --enable-libmp3lame --enable-libmysofa --enable-libopencore-amrnb --enable-libopencore-amrwb --enable-libopenh264 --enable-libopenjpeg --enable-libopus --enable-librubberband --enable-libshine --enable-libsnappy --enable-libsoxr --enable-libspeex --enable-libtheora --enable-libtwolame --enable-libvidstab --enable-libvmaf --enable-libvo-amrwbenc --enable-libvorbis --enable-libvpx --enable-libwebp --enable-libx264 --enable-libx265 --enable-libxavs --enable-libxvid --enable-libzimg --enable-libzmq --enable-libzvbi --enable-version3 --pkg-config-flags=--static --disable-ffplay\n",
      "  libavutil      57. 17.100 / 57. 17.100\n",
      "  libavcodec     59. 18.100 / 59. 18.100\n",
      "  libavformat    59. 16.100 / 59. 16.100\n",
      "  libavdevice    59.  4.100 / 59.  4.100\n",
      "  libavfilter     8. 24.100 /  8. 24.100\n",
      "  libswscale      6.  4.100 /  6.  4.100\n",
      "  libswresample   4.  3.100 /  4.  3.100\n",
      "  libpostproc    56.  3.100 / 56.  3.100\n",
      "Input #0, image2, from '/Users/jegpeek/Dropbox/dust-holograms/Taurus_test_track_2/frames/Taurus_test_track_2_%05d.png':\n",
      "  Duration: 00:00:00.76, start: 0.000000, bitrate: N/A\n",
      "  Stream #0:0: Video: png, gray16be(pc), 60x40, 25 fps, 25 tbr, 25 tbn\n",
      "Stream mapping:\n",
      "  Stream #0:0 -> #0:0 (png (native) -> h264 (libx264))\n",
      "Press [q] to stop, [?] for help\n",
      "[libx264 @ 0x7fc687007ec0] using cpu capabilities: MMX2 SSE2Fast SSSE3 SSE4.2 AVX FMA3 BMI2 AVX2\n",
      "[libx264 @ 0x7fc687007ec0] profile High, level 3.0, 4:2:0, 8-bit\n",
      "[libx264 @ 0x7fc687007ec0] 264 - core 164 r3081 19856cc - H.264/MPEG-4 AVC codec - Copyleft 2003-2021 - http://www.videolan.org/x264.html - options: cabac=1 ref=3 deblock=1:0:0 analyse=0x3:0x113 me=hex subme=7 psy=1 psy_rd=1.00:0.00 mixed_ref=1 me_range=16 chroma_me=1 trellis=1 8x8dct=1 cqm=0 deadzone=21,11 fast_pskip=1 chroma_qp_offset=-2 threads=12 lookahead_threads=2 sliced_threads=0 nr=0 decimate=1 interlaced=0 bluray_compat=0 constrained_intra=0 bframes=3 b_pyramid=2 b_adapt=1 b_bias=0 direct=1 weightb=1 open_gop=0 weightp=2 keyint=250 keyint_min=25 scenecut=40 intra_refresh=0 rc_lookahead=40 rc=crf mbtree=1 crf=23.0 qcomp=0.60 qpmin=0 qpmax=69 qpstep=4 ip_ratio=1.40 aq=1:1.00\n",
      "Output #0, mp4, to '/Users/jegpeek/Dropbox/dust-holograms/Taurus_test_track_2/Taurus_test_track_2.mp4':\n",
      "  Metadata:\n",
      "    encoder         : Lavf59.16.100\n",
      "  Stream #0:0: Video: h264 (avc1 / 0x31637661), yuv420p(tv, progressive), 600x400, q=2-31, 30 fps, 15360 tbn\n",
      "    Metadata:\n",
      "      encoder         : Lavc59.18.100 libx264\n",
      "    Side data:\n",
      "      cpb: bitrate max/min/avg: 0/0/0 buffer size: 0 vbv_delay: N/A\n",
      "frame=    1 fps=0.0 q=0.0 size=       0kB time=00:00:00.00 bitrate=N/A speed=   0x    \r",
      "frame=   19 fps=0.0 q=-1.0 Lsize=      65kB time=00:00:00.53 bitrate= 994.3kbits/s speed=4.73x    \n",
      "video:64kB audio:0kB subtitle:0kB other streams:0kB global headers:0kB muxing overhead: 1.643668%\n",
      "[libx264 @ 0x7fc687007ec0] frame I:1     Avg QP:23.80  size:  3045\n",
      "[libx264 @ 0x7fc687007ec0] frame P:5     Avg QP:24.46  size:  3563\n",
      "[libx264 @ 0x7fc687007ec0] frame B:13    Avg QP:24.74  size:  3359\n",
      "[libx264 @ 0x7fc687007ec0] consecutive B-frames:  5.3%  0.0% 31.6% 63.2%\n",
      "[libx264 @ 0x7fc687007ec0] mb I  I16..4: 20.8% 78.3%  0.8%\n",
      "[libx264 @ 0x7fc687007ec0] mb P  I16..4: 11.6% 45.3%  0.4%  P16..4: 32.3%  4.5%  0.5%  0.0%  0.0%    skip: 5.4%\n",
      "[libx264 @ 0x7fc687007ec0] mb B  I16..4:  4.1% 16.6%  0.1%  B16..8: 41.7% 13.6%  1.1%  direct: 2.4%  skip:20.3%  L0:51.1% L1:45.8% BI: 3.0%\n",
      "[libx264 @ 0x7fc687007ec0] 8x8 transform intra:79.3% inter:98.9%\n",
      "[libx264 @ 0x7fc687007ec0] coded y,uvDC,uvAC intra: 45.7% 0.0% 0.0% inter: 27.0% 0.0% 0.0%\n",
      "[libx264 @ 0x7fc687007ec0] i16 v,h,dc,p: 15% 20%  8% 57%\n",
      "[libx264 @ 0x7fc687007ec0] i8 v,h,dc,ddl,ddr,vr,hd,vl,hu: 21% 18% 19%  6%  9%  6%  7%  6%  7%\n",
      "[libx264 @ 0x7fc687007ec0] i4 v,h,dc,ddl,ddr,vr,hd,vl,hu: 26% 23% 10%  5%  8% 10%  9%  5%  3%\n",
      "[libx264 @ 0x7fc687007ec0] i8c dc,h,v,p: 100%  0%  0%  0%\n",
      "[libx264 @ 0x7fc687007ec0] Weighted P-Frames: Y:40.0% UV:0.0%\n",
      "[libx264 @ 0x7fc687007ec0] ref P L0: 58.0%  4.6% 18.7% 15.0%  3.8%\n",
      "[libx264 @ 0x7fc687007ec0] ref B L0: 63.8% 30.1%  6.1%\n",
      "[libx264 @ 0x7fc687007ec0] ref B L1: 88.2% 11.8%\n",
      "[libx264 @ 0x7fc687007ec0] kb/s:815.12\n"
     ]
    },
    {
     "name": "stdout",
     "output_type": "stream",
     "text": [
      "Perseus\n",
      "[-0.3582515  -0.93362512  0.        ]\n",
      "c hat [-0.94600944 -0.0922936  -0.3107218 ]\n",
      "172.5403032358726 18.692816955761153 177.06678808616883 30.35006378443688\n",
      "c hat [-0.94722315 -0.04913851 -0.31678655]\n",
      "172.5403032358726 18.69281695576117 179.56485628023387 2.4980681940650467\n",
      "c hat [-0.94657915 -0.00425668 -0.32244349]\n",
      "172.5403032358726 18.692816955761153 177.8427750667797 -1.7220812134541792\n",
      "c hat [-0.94387535  0.04216625 -0.32759935]\n",
      "172.5403032358726 18.692816955761153 175.16185815661592 -2.6809169101637558\n",
      "c hat [-0.93892957  0.08989168 -0.33216072]\n",
      "172.5403032358726 18.69281695576117 172.4000867521458 -2.761771404470133\n",
      "c hat [-0.93159025  0.1386295  -0.33603791]\n",
      "172.5403032358726 18.69281695576117 169.56711816593247 -2.8329685862133336\n",
      "c hat [-0.92174705  0.18804311 -0.33914919]\n",
      "172.5403032358726 18.692816955761153 166.67449545142165 -2.8926227145108303\n",
      "c hat [-0.90934037  0.23775814 -0.34142519]\n",
      "172.5403032358726 18.69281695576117 163.73545846656268 -2.939036984858961\n",
      "c hat [-0.89436855  0.28737459 -0.34281299]\n",
      "172.5403032358726 18.692816955761153 160.7646429354508 -2.97081553111188\n",
      "c hat [-0.87689184  0.33648175 -0.34327937]\n",
      "172.5403032358726 18.69281695576117 157.77767925933628 -2.986963676114522\n",
      "c hat [-0.85703248  0.38467464 -0.34281299]\n",
      "172.5403032358726 18.69281695576117 154.79071558322184 -2.9869636761144456\n",
      "c hat [-0.83497052  0.43157046 -0.34142519]\n",
      "172.5403032358726 18.69281695576117 151.81990005210994 -2.970815531111905\n",
      "c hat [-0.81093593  0.47682361 -0.33914919]\n",
      "172.5403032358726 18.69281695576117 148.880863067251 -2.9390369848589355\n",
      "c hat [-0.78519749  0.52013789 -0.33603791]\n",
      "172.5403032358726 18.692816955761153 145.98824035274015 -2.8926227145108556\n",
      "c hat [-0.75804997  0.56127489 -0.33216072]\n",
      "172.5403032358726 18.69281695576117 143.1552717665268 -2.832968586213359\n",
      "c hat [-0.72980053  0.60005821 -0.32759935]\n",
      "172.5403032358726 18.692816955761153 140.39350036205676 -2.761771404470031\n",
      "c hat [-0.70075589  0.63637361 -0.32244349]\n",
      "172.5403032358726 18.692816955761153 137.71258345189304 -2.6809169101637305\n",
      "c hat [-0.6712111   0.6701656  -0.31678655]\n",
      "172.5403032358726 18.692816955761153 135.12021479890615 -2.5923686529868744\n",
      "c hat [-0.64144054  0.70143139 -0.3107218 ]\n",
      "172.5403032358726 18.692816955761153 132.62214660484133 -2.4980681940648175\n",
      "Loaded specifications for 19 images.\n"
     ]
    },
    {
     "name": "stderr",
     "output_type": "stream",
     "text": [
      "100% (19 of 19) |########################| Elapsed Time: 0:00:04 ETA:  00:00:00"
     ]
    },
    {
     "name": "stdout",
     "output_type": "stream",
     "text": [
      "All workers done.\n",
      "0.397824734759316\n",
      "Loading map ...\n",
      "Ray-casting frames ...\n",
      "frame 0: vmax = 0.0064200938943176885\n",
      "frame 1: vmax = 0.01304983564370923\n",
      "frame 2: vmax = 0.008892082789134293\n",
      "frame 3: vmax = 0.014954912871864508\n",
      "frame 4: vmax = 0.019540603551871753\n",
      "frame 5: vmax = 0.01149518646616707\n",
      "frame 6: vmax = 0.013375161498555827\n",
      "frame 7: vmax = 0.020000522668962732\n",
      "frame 8: vmax = 0.016111942115789136\n",
      "frame 9: vmax = 0.013034276939082701\n",
      "frame 10: vmax = 0.02184693307989983\n",
      "frame 11: vmax = 0.015804524039065654\n",
      "frame 12: vmax = 0.012031851530056883\n",
      "frame 13: vmax = 0.01324562127997342\n",
      "frame 14: vmax = 0.011314351871376858\n",
      "frame 15: vmax = 0.01583122831436049\n",
      "frame 16: vmax = 0.014142191541119247\n",
      "frame 17: vmax = 0.011820149097540707\n",
      "frame 18: vmax = 0.01229789248159068\n",
      "Worker finished.\n"
     ]
    },
    {
     "name": "stderr",
     "output_type": "stream",
     "text": [
      "ffmpeg version 5.0-tessus  https://evermeet.cx/ffmpeg/  Copyright (c) 2000-2022 the FFmpeg developers\n",
      "  built with Apple clang version 11.0.0 (clang-1100.0.33.17)\n",
      "  configuration: --cc=/usr/bin/clang --prefix=/opt/ffmpeg --extra-version=tessus --enable-avisynth --enable-fontconfig --enable-gpl --enable-libaom --enable-libass --enable-libbluray --enable-libdav1d --enable-libfreetype --enable-libgsm --enable-libmodplug --enable-libmp3lame --enable-libmysofa --enable-libopencore-amrnb --enable-libopencore-amrwb --enable-libopenh264 --enable-libopenjpeg --enable-libopus --enable-librubberband --enable-libshine --enable-libsnappy --enable-libsoxr --enable-libspeex --enable-libtheora --enable-libtwolame --enable-libvidstab --enable-libvmaf --enable-libvo-amrwbenc --enable-libvorbis --enable-libvpx --enable-libwebp --enable-libx264 --enable-libx265 --enable-libxavs --enable-libxvid --enable-libzimg --enable-libzmq --enable-libzvbi --enable-version3 --pkg-config-flags=--static --disable-ffplay\n",
      "  libavutil      57. 17.100 / 57. 17.100\n",
      "  libavcodec     59. 18.100 / 59. 18.100\n",
      "  libavformat    59. 16.100 / 59. 16.100\n",
      "  libavdevice    59.  4.100 / 59.  4.100\n",
      "  libavfilter     8. 24.100 /  8. 24.100\n",
      "  libswscale      6.  4.100 /  6.  4.100\n",
      "  libswresample   4.  3.100 /  4.  3.100\n",
      "  libpostproc    56.  3.100 / 56.  3.100\n",
      "Input #0, image2, from '/Users/jegpeek/Dropbox/dust-holograms/Perseus_test_track_2/frames/Perseus_test_track_2_%05d.png':\n",
      "  Duration: 00:00:00.76, start: 0.000000, bitrate: N/A\n",
      "  Stream #0:0: Video: png, gray16be(pc), 60x40, 25 fps, 25 tbr, 25 tbn\n",
      "Stream mapping:\n",
      "  Stream #0:0 -> #0:0 (png (native) -> h264 (libx264))\n",
      "Press [q] to stop, [?] for help\n",
      "[libx264 @ 0x7f84fea06a80] using cpu capabilities: MMX2 SSE2Fast SSSE3 SSE4.2 AVX FMA3 BMI2 AVX2\n",
      "[libx264 @ 0x7f84fea06a80] profile High, level 3.0, 4:2:0, 8-bit\n",
      "[libx264 @ 0x7f84fea06a80] 264 - core 164 r3081 19856cc - H.264/MPEG-4 AVC codec - Copyleft 2003-2021 - http://www.videolan.org/x264.html - options: cabac=1 ref=3 deblock=1:0:0 analyse=0x3:0x113 me=hex subme=7 psy=1 psy_rd=1.00:0.00 mixed_ref=1 me_range=16 chroma_me=1 trellis=1 8x8dct=1 cqm=0 deadzone=21,11 fast_pskip=1 chroma_qp_offset=-2 threads=12 lookahead_threads=2 sliced_threads=0 nr=0 decimate=1 interlaced=0 bluray_compat=0 constrained_intra=0 bframes=3 b_pyramid=2 b_adapt=1 b_bias=0 direct=1 weightb=1 open_gop=0 weightp=2 keyint=250 keyint_min=25 scenecut=40 intra_refresh=0 rc_lookahead=40 rc=crf mbtree=1 crf=23.0 qcomp=0.60 qpmin=0 qpmax=69 qpstep=4 ip_ratio=1.40 aq=1:1.00\n",
      "Output #0, mp4, to '/Users/jegpeek/Dropbox/dust-holograms/Perseus_test_track_2/Perseus_test_track_2.mp4':\n",
      "  Metadata:\n",
      "    encoder         : Lavf59.16.100\n",
      "  Stream #0:0: Video: h264 (avc1 / 0x31637661), yuv420p(tv, progressive), 600x400, q=2-31, 30 fps, 15360 tbn\n",
      "    Metadata:\n",
      "      encoder         : Lavc59.18.100 libx264\n",
      "    Side data:\n",
      "      cpb: bitrate max/min/avg: 0/0/0 buffer size: 0 vbv_delay: N/A\n",
      "frame=    1 fps=0.0 q=0.0 size=       0kB time=00:00:00.00 bitrate=N/A speed=   0x    \r",
      "frame=   19 fps=0.0 q=-1.0 Lsize=      66kB time=00:00:00.53 bitrate=1009.8kbits/s speed=5.58x    \n",
      "video:65kB audio:0kB subtitle:0kB other streams:0kB global headers:0kB muxing overhead: 1.605723%\n",
      "[libx264 @ 0x7f84fea06a80] frame I:2     Avg QP:23.35  size:  3666\n",
      "[libx264 @ 0x7f84fea06a80] frame P:6     Avg QP:24.62  size:  3520\n",
      "[libx264 @ 0x7f84fea06a80] frame B:11    Avg QP:24.50  size:  3375\n",
      "[libx264 @ 0x7f84fea06a80] consecutive B-frames: 10.5% 21.1% 47.4% 21.1%\n",
      "[libx264 @ 0x7f84fea06a80] mb I  I16..4: 19.1% 80.7%  0.2%\n",
      "[libx264 @ 0x7f84fea06a80] mb P  I16..4: 13.5% 55.2%  0.2%  P16..4: 24.6%  2.4%  0.3%  0.0%  0.0%    skip: 3.9%\n",
      "[libx264 @ 0x7f84fea06a80] mb B  I16..4:  7.9% 23.3%  0.1%  B16..8: 37.4% 11.1%  0.8%  direct: 2.1%  skip:17.3%  L0:55.2% L1:42.1% BI: 2.7%\n",
      "[libx264 @ 0x7f84fea06a80] 8x8 transform intra:78.2% inter:99.3%\n",
      "[libx264 @ 0x7f84fea06a80] coded y,uvDC,uvAC intra: 44.0% 0.0% 0.0% inter: 26.5% 0.0% 0.0%\n",
      "[libx264 @ 0x7f84fea06a80] i16 v,h,dc,p: 16% 21% 12% 52%\n",
      "[libx264 @ 0x7f84fea06a80] i8 v,h,dc,ddl,ddr,vr,hd,vl,hu: 21% 20% 22%  6%  7%  6%  6%  5%  6%\n",
      "[libx264 @ 0x7f84fea06a80] i4 v,h,dc,ddl,ddr,vr,hd,vl,hu: 33% 21% 11%  5%  9%  7%  5%  7%  3%\n",
      "[libx264 @ 0x7f84fea06a80] i8c dc,h,v,p: 100%  0%  0%  0%\n",
      "[libx264 @ 0x7f84fea06a80] Weighted P-Frames: Y:0.0% UV:0.0%\n",
      "[libx264 @ 0x7f84fea06a80] ref P L0: 60.8%  4.3% 25.2%  9.7%\n",
      "[libx264 @ 0x7f84fea06a80] ref B L0: 70.1% 26.5%  3.4%\n",
      "[libx264 @ 0x7f84fea06a80] ref B L1: 95.0%  5.0%\n",
      "[libx264 @ 0x7f84fea06a80] kb/s:828.29\n"
     ]
    },
    {
     "name": "stdout",
     "output_type": "stream",
     "text": [
      "Musca\n",
      "[0.85749293 0.51449576 0.        ]\n",
      "c hat [ 0.83455826 -0.53108253 -0.14650552]\n",
      "171.91871539561538 4.821298199070023 33.12066790338364 -99.50147870145769\n",
      "c hat [ 0.80920182 -0.56816298 -0.14961031]\n",
      "171.91871539561538 4.821298199070023 35.700817959839924 2.5801500564562834\n",
      "c hat [ 0.78106122 -0.60554185 -0.15252029]\n",
      "171.91871539561538 4.821298199070023 38.386971804392374 2.6861538445524573\n",
      "c hat [ 0.75005859 -0.64290736 -0.15518454]\n",
      "171.91871539561538 4.821298199070023 41.1732846361977 2.7863128318053216\n",
      "c hat [ 0.71617106 -0.67990924 -0.15755138]\n",
      "171.91871539561546 4.821298199070023 44.0515840778228 2.878299441625097\n",
      "c hat [ 0.67944142 -0.71616799 -0.15957059]\n",
      "171.91871539561538 4.821298199070023 47.0113056256742 2.9597215478514003\n",
      "c hat [ 0.63998609 -0.75128802 -0.1611959 ]\n",
      "171.91871539561538 4.821298199070023 50.03955523414622 3.028249608472024\n",
      "c hat [ 0.59799922 -0.78487398 -0.16238772]\n",
      "171.91871539561538 4.821298199070023 53.1213181476744 3.0817629135281783\n",
      "c hat [ 0.55375167 -0.81654907 -0.16311563]\n",
      "171.91871539561538 4.821298199070023 56.23981879960994 3.118500651935545\n",
      "c hat [ 0.50758425 -0.84597375 -0.16336045]\n",
      "171.91871539561538 4.821298199070023 59.37701842333507 3.137199623725126\n",
      "c hat [ 0.45989545 -0.8728628  -0.16311563]\n",
      "171.91871539561538 4.821298199070023 62.51421804706019 3.13719962372512\n",
      "c hat [ 0.41112446 -0.89699883 -0.16238772]\n",
      "171.91871539561538 4.821298199070023 65.63271869899575 3.1185006519355514\n",
      "c hat [ 0.36173127 -0.91824091 -0.1611959 ]\n",
      "171.91871539561538 4.821298199070023 68.7144816125239 3.0817629135281592\n",
      "c hat [ 0.31217579 -0.93652737 -0.15957059]\n",
      "171.91871539561538 4.821298199070023 71.74273122099594 3.0282496084720303\n",
      "c hat [ 0.26289824 -0.95187293 -0.15755138]\n",
      "171.91871539561546 4.821298199070023 74.70245276884734 2.959721547851407\n",
      "c hat [ 0.21430245 -0.96436104 -0.15518454]\n",
      "171.91871539561538 4.821298199070023 77.58075221047243 2.8782994416250847\n",
      "c hat [ 0.16674341 -0.97413254 -0.15252029]\n",
      "171.91871539561538 4.821298199070023 80.36706504227776 2.786312831805328\n",
      "c hat [ 0.12051942 -0.98137242 -0.14961031]\n",
      "171.91871539561538 4.821298199070023 83.05321888683021 2.686153844552445\n",
      "c hat [ 0.07586893 -0.98629612 -0.14650552]\n",
      "171.91871539561538 4.821298199070023 85.6333689432865 2.580150056456296\n",
      "Loaded specifications for 19 images.\n"
     ]
    },
    {
     "name": "stderr",
     "output_type": "stream",
     "text": [
      "100% (19 of 19) |########################| Elapsed Time: 0:00:04 ETA:  00:00:00"
     ]
    },
    {
     "name": "stdout",
     "output_type": "stream",
     "text": [
      "All workers done.\n",
      "0.397824734759316\n",
      "Loading map ...\n",
      "Ray-casting frames ...\n",
      "frame 0: vmax = 0.006188358129355038\n",
      "frame 1: vmax = 0.006840469747094176\n",
      "frame 2: vmax = 0.005096695690070192\n",
      "frame 3: vmax = 0.004659132819964725\n",
      "frame 4: vmax = 0.0058390891110902884\n",
      "frame 5: vmax = 0.004326851787758642\n",
      "frame 6: vmax = 0.00421684138225828\n",
      "frame 7: vmax = 0.004790566987776401\n",
      "frame 8: vmax = 0.005031823955279833\n",
      "frame 9: vmax = 0.005040003767589951\n",
      "frame 10: vmax = 0.0073867325289393194\n",
      "frame 11: vmax = 0.005298755483578134\n",
      "frame 12: vmax = 0.005414246217434993\n",
      "frame 13: vmax = 0.005686232556341565\n",
      "frame 14: vmax = 0.007880499556289578\n",
      "frame 15: vmax = 0.0049518009346065815\n",
      "frame 16: vmax = 0.005583321185637033\n",
      "frame 17: vmax = 0.005624149695911911\n",
      "frame 18: vmax = 0.006572558078361908\n",
      "Worker finished.\n"
     ]
    },
    {
     "name": "stderr",
     "output_type": "stream",
     "text": [
      "ffmpeg version 5.0-tessus  https://evermeet.cx/ffmpeg/  Copyright (c) 2000-2022 the FFmpeg developers\n",
      "  built with Apple clang version 11.0.0 (clang-1100.0.33.17)\n",
      "  configuration: --cc=/usr/bin/clang --prefix=/opt/ffmpeg --extra-version=tessus --enable-avisynth --enable-fontconfig --enable-gpl --enable-libaom --enable-libass --enable-libbluray --enable-libdav1d --enable-libfreetype --enable-libgsm --enable-libmodplug --enable-libmp3lame --enable-libmysofa --enable-libopencore-amrnb --enable-libopencore-amrwb --enable-libopenh264 --enable-libopenjpeg --enable-libopus --enable-librubberband --enable-libshine --enable-libsnappy --enable-libsoxr --enable-libspeex --enable-libtheora --enable-libtwolame --enable-libvidstab --enable-libvmaf --enable-libvo-amrwbenc --enable-libvorbis --enable-libvpx --enable-libwebp --enable-libx264 --enable-libx265 --enable-libxavs --enable-libxvid --enable-libzimg --enable-libzmq --enable-libzvbi --enable-version3 --pkg-config-flags=--static --disable-ffplay\n",
      "  libavutil      57. 17.100 / 57. 17.100\n",
      "  libavcodec     59. 18.100 / 59. 18.100\n",
      "  libavformat    59. 16.100 / 59. 16.100\n",
      "  libavdevice    59.  4.100 / 59.  4.100\n",
      "  libavfilter     8. 24.100 /  8. 24.100\n",
      "  libswscale      6.  4.100 /  6.  4.100\n",
      "  libswresample   4.  3.100 /  4.  3.100\n",
      "  libpostproc    56.  3.100 / 56.  3.100\n",
      "Input #0, image2, from '/Users/jegpeek/Dropbox/dust-holograms/Musca_test_track_2/frames/Musca_test_track_2_%05d.png':\n",
      "  Duration: 00:00:00.76, start: 0.000000, bitrate: N/A\n",
      "  Stream #0:0: Video: png, gray16be(pc), 60x40, 25 fps, 25 tbr, 25 tbn\n",
      "Stream mapping:\n",
      "  Stream #0:0 -> #0:0 (png (native) -> h264 (libx264))\n",
      "Press [q] to stop, [?] for help\n",
      "[libx264 @ 0x7fb822f05b00] using cpu capabilities: MMX2 SSE2Fast SSSE3 SSE4.2 AVX FMA3 BMI2 AVX2\n",
      "[libx264 @ 0x7fb822f05b00] profile High, level 3.0, 4:2:0, 8-bit\n",
      "[libx264 @ 0x7fb822f05b00] 264 - core 164 r3081 19856cc - H.264/MPEG-4 AVC codec - Copyleft 2003-2021 - http://www.videolan.org/x264.html - options: cabac=1 ref=3 deblock=1:0:0 analyse=0x3:0x113 me=hex subme=7 psy=1 psy_rd=1.00:0.00 mixed_ref=1 me_range=16 chroma_me=1 trellis=1 8x8dct=1 cqm=0 deadzone=21,11 fast_pskip=1 chroma_qp_offset=-2 threads=12 lookahead_threads=2 sliced_threads=0 nr=0 decimate=1 interlaced=0 bluray_compat=0 constrained_intra=0 bframes=3 b_pyramid=2 b_adapt=1 b_bias=0 direct=1 weightb=1 open_gop=0 weightp=2 keyint=250 keyint_min=25 scenecut=40 intra_refresh=0 rc_lookahead=40 rc=crf mbtree=1 crf=23.0 qcomp=0.60 qpmin=0 qpmax=69 qpstep=4 ip_ratio=1.40 aq=1:1.00\n",
      "Output #0, mp4, to '/Users/jegpeek/Dropbox/dust-holograms/Musca_test_track_2/Musca_test_track_2.mp4':\n",
      "  Metadata:\n",
      "    encoder         : Lavf59.16.100\n",
      "  Stream #0:0: Video: h264 (avc1 / 0x31637661), yuv420p(tv, progressive), 600x400, q=2-31, 30 fps, 15360 tbn\n",
      "    Metadata:\n",
      "      encoder         : Lavc59.18.100 libx264\n",
      "    Side data:\n",
      "      cpb: bitrate max/min/avg: 0/0/0 buffer size: 0 vbv_delay: N/A\n",
      "frame=    1 fps=0.0 q=0.0 size=       0kB time=00:00:00.00 bitrate=N/A speed=   0x    \r",
      "frame=   19 fps=0.0 q=-1.0 Lsize=      67kB time=00:00:00.53 bitrate=1023.9kbits/s speed=4.99x    \n",
      "video:66kB audio:0kB subtitle:0kB other streams:0kB global headers:0kB muxing overhead: 1.595262%\n",
      "[libx264 @ 0x7fb822f05b00] frame I:1     Avg QP:24.02  size:  3153\n",
      "[libx264 @ 0x7fb822f05b00] frame P:5     Avg QP:25.09  size:  3781\n",
      "[libx264 @ 0x7fb822f05b00] frame B:13    Avg QP:25.35  size:  3419\n",
      "[libx264 @ 0x7fb822f05b00] consecutive B-frames:  5.3%  0.0% 31.6% 63.2%\n",
      "[libx264 @ 0x7fb822f05b00] mb I  I16..4: 28.7% 70.7%  0.5%\n",
      "[libx264 @ 0x7fb822f05b00] mb P  I16..4: 14.3% 45.3%  0.3%  P16..4: 29.7%  5.5%  0.8%  0.0%  0.0%    skip: 4.1%\n",
      "[libx264 @ 0x7fb822f05b00] mb B  I16..4:  6.6% 17.5%  0.1%  B16..8: 38.0% 13.7%  1.7%  direct: 3.9%  skip:18.5%  L0:51.7% L1:43.6% BI: 4.7%\n",
      "[libx264 @ 0x7fb822f05b00] 8x8 transform intra:73.5% inter:97.9%\n",
      "[libx264 @ 0x7fb822f05b00] coded y,uvDC,uvAC intra: 44.3% 0.0% 0.0% inter: 28.1% 0.0% 0.0%\n",
      "[libx264 @ 0x7fb822f05b00] i16 v,h,dc,p: 10% 19%  6% 64%\n",
      "[libx264 @ 0x7fb822f05b00] i8 v,h,dc,ddl,ddr,vr,hd,vl,hu: 17% 23% 17%  6%  9%  7%  9%  6%  7%\n",
      "[libx264 @ 0x7fb822f05b00] i4 v,h,dc,ddl,ddr,vr,hd,vl,hu: 22% 26% 10%  4% 11%  8% 10%  6%  3%\n",
      "[libx264 @ 0x7fb822f05b00] i8c dc,h,v,p: 100%  0%  0%  0%\n",
      "[libx264 @ 0x7fb822f05b00] Weighted P-Frames: Y:60.0% UV:0.0%\n",
      "[libx264 @ 0x7fb822f05b00] ref P L0: 58.5%  4.2% 20.1% 11.7%  5.5%\n",
      "[libx264 @ 0x7fb822f05b00] ref B L0: 70.2% 25.8%  4.0%\n",
      "[libx264 @ 0x7fb822f05b00] ref B L1: 90.8%  9.2%\n",
      "[libx264 @ 0x7fb822f05b00] kb/s:840.11\n"
     ]
    },
    {
     "name": "stdout",
     "output_type": "stream",
     "text": [
      "Pipe\n",
      "[-0.03309444  0.99945223  0.        ]\n",
      "c hat [0.87760041 0.47573625 0.05909767]\n",
      "179.87449468177837 3.7847431394564848 28.415656490685624 -57.217712452600864\n",
      "c hat [0.89822855 0.43536246 0.06037384]\n",
      "179.87449468177837 3.7847431394564848 25.816710398254067 -2.5989460924315586\n",
      "c hat [0.91775461 0.39234608 0.06157131]\n",
      "179.87449468177837 3.7847431394564848 23.108901236871805 -2.707809161382264\n",
      "c hat [0.93585509 0.34676773 0.06266887]\n",
      "179.87449468177837 3.7847431394564848 20.298077257144744 -2.810823979727057\n",
      "c hat [0.9521982  0.29877738 0.06364489]\n",
      "179.87449468177837 3.7847431394564848 17.39251160767566 -2.9055656494690836\n",
      "c hat [0.96645785 0.24859961 0.06447829]\n",
      "179.87449468177837 3.7847431394564848 14.402979375786105 -2.989532231889559\n",
      "c hat [0.97833003 0.19653467 0.06514961]\n",
      "179.87449468177837 3.7847431394564848 11.342700411005392 -3.060278964780711\n",
      "c hat [0.98755012 0.14295408 0.06564218]\n",
      "179.87449468177837 3.7847431394564848 8.227126497702693 -3.1155739133026996\n",
      "c hat [0.9939096  0.08829053 0.06594314]\n",
      "179.87449468177837 3.7847431394564848 5.073566771553519 -3.1535597261491737\n",
      "c hat [0.99727011 0.03302219 0.06604438]\n",
      "179.87449468177837 3.7847431394564848 1.900665016825962 -3.1729017547275573\n",
      "c hat [ 0.9975731  -0.0223474   0.06594314]\n",
      "179.87449468177837 3.7847431394564848 1.2722367379017445 -0.6284282789242174\n",
      "c hat [ 0.99484369 -0.0773119   0.06564218]\n",
      "179.87449468177837 3.7847431394564848 4.425796464050631 3.1535597261488864\n",
      "c hat [ 0.9891883  -0.13138505  0.06514961]\n",
      "179.87449468177837 3.7847431394564848 7.541370377353437 3.115573913302807\n",
      "c hat [ 0.98078636 -0.18412133  0.06447829]\n",
      "179.87449468177837 3.7847431394564848 10.601649342134078 3.06027896478064\n",
      "c hat [ 0.96987733 -0.23513249  0.06364489]\n",
      "179.87449468177837 3.7847431394564848 13.591181574023599 2.9895322318895206\n",
      "c hat [ 0.95674471 -0.28409887  0.06266887]\n",
      "179.87449468177837 3.7847431394564848 16.49674722349274 2.905565649469142\n",
      "c hat [ 0.94169901 -0.33077477  0.06157131]\n",
      "179.87449468177837 3.7847431394564848 19.307571203219755 2.8108239797270156\n",
      "c hat [ 0.92506137 -0.37498862  0.06037384]\n",
      "179.87449468177837 3.7847431394564848 22.015380364602027 2.707809161382274\n",
      "c hat [ 0.90714925 -0.41663858  0.05909767]\n",
      "179.87449468177837 3.7847431394564848 24.614326457033595 2.5989460924315653\n",
      "Loaded specifications for 19 images.\n"
     ]
    }
   ],
   "source": [
    "makeimages = True\n",
    "makemovies = True\n",
    "oldzeta = 0\n",
    "for c in clouds:\n",
    "    print(c['cloud'])\n",
    "    run_name = c['cloud'] + '_test_track_2'\n",
    "    define_paths(run_name)\n",
    "    if arc:\n",
    "        xs, ys, angs = sweep(c['x'], c['y'], angle_sweep, nframes)\n",
    "        print(xs, ys, angs)\n",
    "        plot_ang(c['x'], c['y'], xs, ys, run_name)\n",
    "        # we make an empty list of frames to which we can append frames\n",
    "        fprops = []\n",
    "        allprops = build_fprops(fprops, cprops, angs, xs, ys, np.float(c['z']))\n",
    "    if not arc:\n",
    "        #hardcoding a track\n",
    "        #xts, yts, zts, t_hat = track(c['xt1'], c['yt1'], c['zt1'], c['xt2'], c['yt2'], c['zt2'], nframes)\n",
    "        xts, yts, zts, t_hat = track(c['y']*0.5, c['x']*(-0.5), 0, c['y']*(-0.5), c['x']*(0.5), 0, nframes)\n",
    "        plot_track(xts, yts, c['x'], c['y'], run_name)\n",
    "        print(t_hat)\n",
    "        fprops = []\n",
    "        thetas = np.zeros(nframes)\n",
    "        phis = np.zeros(nframes)\n",
    "        zetas = np.zeros(nframes)\n",
    "        for j in np.arange(nframes):\n",
    "            v_pos = np.array([xts[j], yts[j], zts[j]])\n",
    "            c_pos = np.array([c['x'], c['y'], c['z']])\n",
    "            thetas[j], phis[j], zetas[j] = determine_angles(v_pos, c_pos, t_hat)\n",
    "            print(thetas[j]*180/np.pi, phis[j]*180/np.pi, zetas[j]*180/np.pi,(zetas[j]-oldzeta)*180/np.pi )\n",
    "            oldzeta = zetas[j]\n",
    "        allprops = build_fprops_track(fprops, cprops, thetas, phis, zetas, xts, yts, zts)\n",
    "\n",
    "    with open('{}/{}/{}.json'.format(os.environ['DROPBOX_ROOT'],run_name,run_name), 'w') as outfile:\n",
    "        json.dump(allprops, outfile,indent=2)\n",
    "    if makeimages:\n",
    "        os.system(\"python3 project_frames.py {}/{}/{}.json {}/leike2020_bayestar19_splice.npy {}/{}/frames/{}_{{:05d}}.png\"\n",
    "          .format(os.environ['DROPBOX_ROOT'],run_name,run_name,os.environ['DROPBOX_ROOT'],os.environ['DROPBOX_ROOT'],run_name, run_name))\n",
    "    if makemovies:\n",
    "        os.system(\"{}/ffmpeg -y -r 30 -start_number 0 -i {}/{}/frames/{}_%05d.png -c:v libx264 -s 600x400 -r 30 -pix_fmt yuv420p {}/{}/{}.mp4\"\n",
    "          .format(os.environ['FFMPEG_ROOT'],os.environ['DROPBOX_ROOT'],run_name,run_name,os.environ['DROPBOX_ROOT'],run_name, run_name))\n"
   ]
  },
  {
   "cell_type": "code",
   "execution_count": null,
   "metadata": {},
   "outputs": [],
   "source": [
    "plt.scatter(xts, yts)\n",
    "plt.scatter()"
   ]
  },
  {
   "cell_type": "code",
   "execution_count": null,
   "metadata": {},
   "outputs": [],
   "source": [
    "print(nframes)"
   ]
  },
  {
   "cell_type": "code",
   "execution_count": null,
   "metadata": {},
   "outputs": [],
   "source": []
  }
 ],
 "metadata": {
  "kernelspec": {
   "display_name": "Python 3 (ipykernel)",
   "language": "python",
   "name": "python3"
  },
  "language_info": {
   "codemirror_mode": {
    "name": "ipython",
    "version": 3
   },
   "file_extension": ".py",
   "mimetype": "text/x-python",
   "name": "python",
   "nbconvert_exporter": "python",
   "pygments_lexer": "ipython3",
   "version": "3.8.3"
  }
 },
 "nbformat": 4,
 "nbformat_minor": 4
}
